<mxfile host="app.diagrams.net" modified="2023-11-07T17:58:46.650Z" agent="Mozilla/5.0 (X11; Linux x86_64) AppleWebKit/537.36 (KHTML, like Gecko) Chrome/114.0.0.0 Safari/537.36" version="22.0.8" etag="pByQhiGmASLB7nF2iQqD" type="github">
  <diagram name="PÃ¡gina-1" id="sMuEwo57DOW2Laynuzo8">
    <mxGraphModel>
      <root>
        <mxCell id="0" />
        <mxCell id="1" parent="0" />
      </root>
    </mxGraphModel>
  </diagram>
</mxfile>
